<svg xmlns="http://www.w3.org/2000/svg" width="500" height="500" viewBox="0 0 500 500" version="1.1"><path d="M 231.500 117.094 C 147.078 122.332, 84.250 186.505, 75.048 276.894 C 60.628 418.528, 266.236 520.033, 378 426.457 C 387.279 418.688, 394.310 411.399, 391.500 412.462 C 265.104 460.267, 145.547 412.976, 127.409 308 C 113.064 224.975, 209.669 159.763, 245 228.622 C 251.673 241.627, 255.687 245, 264.492 245 C 277.164 245, 285.050 235.573, 286.878 218.240 C 287.672 210.712, 286.916 210.204, 307 231.754 C 326.003 252.143, 348.805 245.713, 347.737 220.265 C 347.265 209.030, 347.265 209.030, 353.359 214.672 C 382.153 241.330, 415.768 222.567, 396.509 190.585 C 373.105 151.720, 315.388 120.548, 261.147 117.480 C 255.841 117.180, 249.700 116.803, 247.500 116.642 C 245.300 116.481, 238.100 116.684, 231.500 117.094 M 391.346 248.539 C 393.198 262.145, 401.555 269.419, 406.433 261.672 C 408.177 258.902, 404.271 253.247, 397.085 248.139 C 390.670 243.579, 390.670 243.579, 391.346 248.539 M 285.058 269.009 C 272.444 286.161, 271.904 304, 284 304 C 293.120 304, 295.948 295.344, 292.415 278.243 C 289.576 264.498, 288.952 263.715, 285.058 269.009 M 341.877 271.750 C 337.380 284.942, 342.683 306, 350.502 306 C 364.962 306, 363.314 290.420, 346.815 271.138 C 343.453 267.210, 343.423 267.214, 341.877 271.750" stroke="none" fill="#c39ca4" fill-rule="evenodd"/><path d="M 229.500 38.602 C 117.033 50.035, 33.387 141.772, 29.452 258 C 28.927 273.500, 28.927 273.500, 32.407 262 C 83.980 91.543, 213.480 23.977, 343.692 99.590 C 476.546 176.738, 469.423 332.841, 329.821 403.591 C 322.882 407.107, 323.297 407.644, 332.343 406.851 C 448.199 396.693, 505.335 273.439, 448.477 156.326 C 410.091 77.262, 320.899 29.311, 229.500 38.602 M 194.500 226.649 C 156.871 234.634, 137.669 275.128, 150.506 319.424 C 162.519 360.877, 203.803 394.463, 259.922 408.437 C 279.183 413.234, 279.735 413.119, 270.215 406.291 C 221.152 371.104, 215.337 318.644, 255.572 274.183 C 262.124 266.943, 262.086 267.378, 256.250 266.566 C 241.633 264.531, 225.879 249.724, 217.932 230.550 C 215.331 224.273, 209.931 223.374, 194.500 226.649" stroke="none" fill="#fbe4b3" fill-rule="evenodd"/></svg>